<?xml version="1.0" encoding="utf-8"?>
<svg viewBox="0 0 20 20" xmlns="http://www.w3.org/2000/svg">
  <path fill="currentColor" d="M 9.999 1.276 C 11.918 1.276 13.118 3.352 12.158 5.014 C 11.713 5.786 10.89 6.261 9.999 6.261 C 8.081 6.261 6.882 4.183 7.841 2.522 C 8.287 1.751 9.11 1.276 9.999 1.276 M 10.623 7.456 C 13.46 6.976 14.715 3.604 12.88 1.387 C 11.047 -0.831 7.499 -0.232 6.495 2.466 C 5.677 4.665 7.063 7.065 9.377 7.456 L 9.377 11.246 L 6.884 11.246 C 5.852 11.246 5.014 12.083 5.014 13.115 L 5.014 13.739 L 3.768 13.739 C 2.392 13.739 1.276 14.855 1.276 16.231 L 1.276 19.346 C 1.276 19.691 1.554 19.97 1.899 19.97 L 18.101 19.97 C 18.444 19.97 18.724 19.691 18.724 19.346 L 18.724 16.231 C 18.724 14.855 17.608 13.739 16.231 13.739 L 14.985 13.739 L 14.985 13.115 C 14.985 12.083 14.148 11.246 13.115 11.246 L 10.623 11.246 L 10.623 7.456 Z M 6.884 12.492 L 13.115 12.492 C 13.459 12.492 13.739 12.771 13.739 13.115 L 13.739 13.739 L 6.261 13.739 L 6.261 13.115 C 6.261 12.771 6.539 12.492 6.884 12.492 M 3.768 14.985 L 16.231 14.985 C 16.919 14.985 17.477 15.543 17.477 16.231 L 17.477 18.724 L 2.522 18.724 L 2.522 16.231 C 2.522 15.543 3.079 14.985 3.768 14.985" style=""/>
</svg>